<?xml version="1.0" encoding="UTF-8" standalone="no"?>
<!-- Created with Inkscape (http://www.inkscape.org/) -->

<svg
   xmlns:dc="http://purl.org/dc/elements/1.1/"
   xmlns:cc="http://creativecommons.org/ns#"
   xmlns:rdf="http://www.w3.org/1999/02/22-rdf-syntax-ns#"
   xmlns:svg="http://www.w3.org/2000/svg"
   xmlns="http://www.w3.org/2000/svg"
   xmlns:sodipodi="http://sodipodi.sourceforge.net/DTD/sodipodi-0.dtd"
   xmlns:inkscape="http://www.inkscape.org/namespaces/inkscape"
   id="svg2"
   version="1.1"
   inkscape:version="0.91 r13725"
   xml:space="preserve"
   width="1008.988"
   height="810"
   viewBox="0 0 1008.988 810"
   sodipodi:docname="publicdomainq-business-man-working.svg"
   inkscape:export-filename="/media/sdb1/_GRAFIKA/Publicdomainq/lidi/publicdomainq-business-man-working.png"
   inkscape:export-xdpi="88.930695"
   inkscape:export-ydpi="88.930695"><title
     id="title7598">Business man working</title><metadata
     id="metadata8"><rdf:RDF><cc:Work
         rdf:about=""><dc:format>image/svg+xml</dc:format><dc:type
           rdf:resource="http://purl.org/dc/dcmitype/StillImage" /><dc:title>Business man working</dc:title><cc:license
           rdf:resource="http://creativecommons.org/publicdomain/zero/1.0/" /><dc:subject><rdf:Bag><rdf:li>man</rdf:li><rdf:li>male</rdf:li><rdf:li>work</rdf:li><rdf:li>office</rdf:li><rdf:li>laptop</rdf:li><rdf:li>computer</rdf:li><rdf:li>suit</rdf:li><rdf:li>tie</rdf:li><rdf:li>publicdomainq.net</rdf:li></rdf:Bag></dc:subject><dc:description>This image was adapted from a picture posted to publicdomainq.net. All of the images on these sites are in the public domain i.e. CC0. This site is only in Japanese but can be easily navigated with Google Translate.</dc:description></cc:Work><cc:License
         rdf:about="http://creativecommons.org/publicdomain/zero/1.0/"><cc:permits
           rdf:resource="http://creativecommons.org/ns#Reproduction" /><cc:permits
           rdf:resource="http://creativecommons.org/ns#Distribution" /><cc:permits
           rdf:resource="http://creativecommons.org/ns#DerivativeWorks" /></cc:License></rdf:RDF></metadata><defs
     id="defs6" /><sodipodi:namedview
     pagecolor="#ffffff"
     bordercolor="#666666"
     borderopacity="1"
     objecttolerance="10"
     gridtolerance="10"
     guidetolerance="10"
     inkscape:pageopacity="0"
     inkscape:pageshadow="2"
     inkscape:window-width="1920"
     inkscape:window-height="1125"
     id="namedview4"
     showgrid="false"
     inkscape:zoom="0.72858508"
     inkscape:cx="352.81293"
     inkscape:cy="414.55302"
     inkscape:window-x="0"
     inkscape:window-y="0"
     inkscape:window-maximized="1"
     inkscape:current-layer="svg2"
     fit-margin-top="5"
     fit-margin-left="5"
     fit-margin-bottom="5"
     fit-margin-right="5" /><g
     transform="matrix(0.56572247,0,0,-0.56572247,5.0402875,805)"
     id="g7614"><path
       inkscape:connector-curvature="0"
       id="path7616"
       style="fill:#80cc28;fill-opacity:1;fill-rule:nonzero;stroke:none"
       d="m 1474.14,7.82031 91.28,472.92169 c 0,0 123.33,12.559 133.74,-91.703 10.02,-100.391 -28.62,-256.277 -91.95,-379.64837 L 1474.14,7.82031" /><path
       inkscape:connector-curvature="0"
       id="path7618"
       style="fill:#a6db67;fill-opacity:1;fill-rule:nonzero;stroke:none"
       d="m 1681.08,347.578 c -8.54,85.586 -93.14,92.442 -123.18,92.156 l 7.52,41.008 c 0,0 123.33,12.559 133.74,-91.703 9.54,-95.617 -25.12,-239.199 -83.15,-361.5781 46.94,116.7301 73.58,234.9101 65.07,320.1171" /><path
       inkscape:connector-curvature="0"
       id="path7620"
       style="fill:none;stroke:#231f20;stroke-width:10;stroke-linecap:round;stroke-linejoin:round;stroke-miterlimit:10;stroke-dasharray:none;stroke-opacity:1"
       d="m 1565.42,480.742 c 0,0 123.33,12.559 133.74,-91.703 10.02,-100.391 -28.62,-256.277 -91.95,-379.64837" /><path
       inkscape:connector-curvature="0"
       id="path7622"
       style="fill:#4f4c4c;fill-opacity:1;fill-rule:nonzero;stroke:none"
       d="m 722.266,234.332 159.597,-11.711 c 7.09,17.918 25.84,17.918 25.84,17.918 0,0 71.36,201.402 88.86,256.402 17.497,55 138.007,98.137 138.007,98.137 l 4.88,2.656 c 31.19,22.422 60.54,40.879 60.54,40.879 l 140.83,17.5 c 0,0 17.5,-5.41 38.97,-17.5 l 8.53,-4.16 c 0,0 145.6,-25.578 169.99,-49.953 30.41,-30.43 57.45,-65.535 47.04,-162.605 -9.39,-87.446 -63.75,-282.465 -85,-322.4653 -9.45,-17.7813 -16.68,-32.3477 -26.62,-42.9414 l -6.29,-7.0586 0.45,-38.7891 L 696.277,9.44922 722.266,234.332" /><path
       inkscape:connector-curvature="0"
       id="path7624"
       style="fill:#ffffff;fill-opacity:1;fill-rule:nonzero;stroke:none"
       d="m 1138.32,204.898 c 22.5,150.84 187.5,376.215 187.5,376.215 l 5.27,8.262 c 11.35,16.289 19.72,31.582 20.36,41.953 0.82,13.34 -9.8,25.195 -28.13,36.875 l -122.5,-40.43 c 0,0 -43.18,-38.437 -55.78,-98.906 l -2.55,-13.594 c 0,0 -35.42,-101.625 -12.92,-309.953 l 8.75,-0.422" /><path
       inkscape:connector-curvature="0"
       id="path7626"
       style="fill:#c2d0d6;fill-opacity:1;fill-rule:nonzero;stroke:none"
       d="m 1146.53,499.863 c 0,0 25.75,33.387 31.78,38.614 6.04,5.222 59.13,12.878 63.15,8.046 4.03,-4.835 22.52,-35.402 22.52,-35.402 l 20.92,14.082 -23.33,-44.246 c 0,0 -20.41,46.25 -61.58,37.578 -31.66,-6.672 -63.11,-37.18 -63.11,-37.18 l 9.65,18.508" /><path
       inkscape:connector-curvature="0"
       id="path7628"
       style="fill:#f0374b;fill-opacity:1;fill-rule:nonzero;stroke:none"
       d="m 1121.66,297.691 c 15.83,86.668 63.33,205.922 63.33,205.922 l -3.54,39.59 0.91,3.027 c 14.22,17.676 27.64,32.852 31.59,32.598 4.59,-0.312 16.56,-16.992 27.55,-33.926 l 0.57,-4.824 -40.41,-39.805 c 0,0 -0.84,-103.421 -6.67,-147.582 0,0 -49.79,-95.703 -56.67,-147.793 l -8.75,0.422 c 0,0 -7.69,81.532 -7.91,92.371" /><path
       inkscape:connector-curvature="0"
       id="path7630"
       style="fill:#3d3a3b;fill-opacity:1;fill-rule:nonzero;stroke:none"
       d="m 770.828,56.5703 -7.5,67.4997 55,33.34 160.832,-46.672 126.67,5.832 34.17,-58.3317 -369.172,-1.668" /><path
       inkscape:connector-curvature="0"
       id="path7632"
       style="fill:#3d3a3b;fill-opacity:1;fill-rule:nonzero;stroke:none"
       d="m 1028.43,280.211 14.15,-128.66 -47.541,1.551 c 0,0 28.961,21.718 33.391,127.109" /><path
       inkscape:connector-curvature="0"
       id="path7634"
       style="fill:#ffffff;fill-opacity:1;fill-rule:nonzero;stroke:none"
       d="m 1055.82,96.3711 c 0,0 17.1,-19.6602 22.5,-21.25 10.63,-3.1328 68.75,0.6172 68.75,0.6172 16.25,45.6327 -33.75,99.9997 -33.75,99.9997 0,0 -58.12,10 -71.87,8.133 -13.75,-1.883 -11.04,-23.551 -11.04,-23.551 l 25.41,-63.9489" /><path
       inkscape:connector-curvature="0"
       id="path7636"
       style="fill:#fcd0b4;fill-opacity:1;fill-rule:nonzero;stroke:none"
       d="m 1090.82,95.1211 -45,4.9999 c 0,0 -10,-26.8827 -48.125,-29.9999 C 971.27,67.9492 860.82,123.238 860.82,123.238 c 0,0 -36.875,-36.2497 -53.75,-44.9997 -16.875,-8.75 -31.875,0.6328 -19.375,11.8828 6.993,6.2891 23.567,27.6289 37.254,46.7499 l 2.121,3.867 c 0,0 -43.332,-38.75 -58.75,-44.1599 -5.781,-2.0273 -10.566,-1.539 -13.886,0.2227 l -2.364,1.4375 c -5.422,-2.5 -12.082,2.9217 -10.832,8.3397 0,0 17.707,70.981 20.422,81.25 4.16,15.832 73.535,20.41 81.66,20.41 19.375,0 153.125,-40.617 168.75,-45 15.63,-4.367 62.09,-8.328 62.09,-8.328 0,0 16.66,-35.41 16.66,-59.7889" /><path
       inkscape:connector-curvature="0"
       id="path7638"
       style="fill:#fcd0b4;fill-opacity:1;fill-rule:nonzero;stroke:none"
       d="m 1315.82,707.781 9.17,-52.5 c -5,-29.168 -100.01,-65.652 -109.17,-63.953 -11.25,2.07 -12.5,16.445 -12.5,16.445 l -2.5,45.008 2.5,19.172 100,54.16 12.5,-18.332" /><path
       inkscape:connector-curvature="0"
       id="path7640"
       style="fill:#7b4b4b;fill-opacity:1;fill-rule:nonzero;stroke:none"
       d="m 1533.36,929.535 c 32.53,44.285 62.72,133.325 58.47,232.305 -4.27,98.96 -65.37,123.82 -65.37,123.82 -31.35,100.79 -219.61,118.57 -248.36,121.43 -77.68,7.72 -161.89,-14.13 -235.42,-58.45 C 979.961,1310.88 892.969,1294 892.969,1294 c 2.785,-42.5 84.179,-55.87 84.179,-55.87 0,0 -80.488,-95.47 -0.949,-248.888 l 17.61,-30.691 481.741,-75.09 57.81,46.074" /><path
       inkscape:connector-curvature="0"
       id="path7642"
       style="fill:#c79485;fill-opacity:1;fill-rule:nonzero;stroke:none"
       d="m 972.637,1015.36 c -51.707,144.53 26.797,227.96 26.797,227.96 0,0 -77.637,-7.48 -80.45,35.04 0,0 87.016,16.87 149.716,54.63 73.55,44.32 157.75,66.16 235.41,58.47 18.99,-1.9 107.56,-10.33 174.56,-44.85 -67.52,47.76 -179,58.34 -200.57,60.48 -77.68,7.72 -161.89,-14.13 -235.42,-58.45 C 979.961,1310.88 892.969,1294 892.969,1294 c 2.785,-42.5 84.179,-55.87 84.179,-55.87 0,0 -100.781,-81.24 -0.949,-248.888 0,0 1.614,11.628 -3.562,26.118" /><path
       inkscape:connector-curvature="0"
       id="path7644"
       style="fill:#de9284;fill-opacity:1;fill-rule:nonzero;stroke:none"
       d="m 1203.17,651.25 2.98,-49.543 c 0,0 7.36,-13.164 23.43,-7.93 22.3,7.266 62.78,36.211 90.36,96.653 l -6.91,29.961 -113.69,-53.008 3.83,-16.133" /><path
       inkscape:connector-curvature="0"
       id="path7646"
       style="fill:#fcd0b4;fill-opacity:1;fill-rule:nonzero;stroke:none"
       d="m 1123.34,1270.7 c -26.65,-15.84 -61.59,-102.1 -61.59,-102.1 100.22,-0.71 247.03,95.56 247.03,95.56 0,0 29.67,-206.18 85.38,-256.59 0,0 3.35,10.96 6.77,27.39 l 2.44,3.38 c 0,0 12.18,-90.067 6.2,-132.582 0,0 31.16,32.793 45,75.465 l 2.32,2.55 c 0,0 11.86,12.891 35.29,9.688 23.44,-3.215 59.27,-49.883 24.66,-123.859 -32.86,-70.211 -96.92,-89.793 -105.8,-73.086 0,0 -8.34,-22.43 -21.74,-41.832 -21.58,-31.293 -140.61,-113.61 -223.72,-108.883 -85.01,4.844 -155.08,115.179 -173.822,156.633 -18.762,41.457 -8.086,121.183 -8.086,121.183 -24.5,154.913 0.437,216.063 0.437,216.063 19.761,66.3 128.301,122.86 128.301,122.86 l 10.93,8.16" /><path
       inkscape:connector-curvature="0"
       id="path7648"
       style="fill:#ffffff;fill-opacity:1;fill-rule:nonzero;stroke:none"
       d="m 1288.24,1025.06 c -2.11,25.29 -18.71,63.89 -59.36,66.6 -40.62,2.73 -52.71,-38.97 -52.71,-38.97 0,0 -4.36,-56.827 11.66,-84.444 20.53,-35.344 68.24,-30.098 86.87,-3.359 12.51,17.976 14,40.693 13.54,60.173" /><path
       inkscape:connector-curvature="0"
       id="path7650"
       style="fill:#ffffff;fill-opacity:1;fill-rule:nonzero;stroke:none"
       d="m 1004.97,998.043 c -1.04,15.937 1.81,47.387 25.86,56.887 24.02,9.49 41.99,-24.69 41.99,-24.69 0,0 10.1,-29.3 11.39,-51.869 1.28,-22.547 -0.8,-28.808 -5.61,-38.66 -9.01,-18.438 -44.78,-25.418 -55.8,-2.481 -10.7,22.344 -16.91,41.27 -17.83,60.813" /><path
       inkscape:connector-curvature="0"
       id="path7652"
       style="fill:#f7939c;fill-opacity:1;fill-rule:nonzero;stroke:none"
       d="m 1355.58,933.66 c 0.47,-12.519 -21.09,-24.336 -48.16,-26.394 -27.09,-2.09 -49.43,6.336 -49.92,18.847 -0.5,12.5 21.07,24.305 48.17,26.407 27.07,2.078 49.43,-6.36 49.91,-18.86" /><path
       inkscape:connector-curvature="0"
       id="path7654"
       style="fill:#f7939c;fill-opacity:1;fill-rule:nonzero;stroke:none"
       d="m 1025.37,901.422 c 2.88,-6.828 -1.6,-15.91 -13.63,-21.406 -19.052,-8.618 -28.381,-0.493 -30.177,14.226 -1.551,12.676 2.707,19.961 19.977,19.199 11.92,-0.554 21.16,-5.695 23.83,-12.019" /><path
       inkscape:connector-curvature="0"
       id="path7656"
       style="fill:#d8e5f6;fill-opacity:1;fill-rule:nonzero;stroke:none"
       d="m 1178.02,1055.4 c 0,0 8.6,24.62 25.34,29.98 16.78,5.34 31.68,5.35 45.3,1.19 25.54,-7.8 34.31,-38.94 34.31,-38.94 0,0 -60.99,45.48 -104.95,7.77" /><path
       inkscape:connector-curvature="0"
       id="path7658"
       style="fill:#d8e5f6;fill-opacity:1;fill-rule:nonzero;stroke:none"
       d="m 1068.38,1031.57 c 0,0 -16.84,25.41 -29.81,23.2 -12.96,-2.24 -26.52,-10.14 -30.63,-38.31 0,0 18.41,34.68 60.44,15.11" /><path
       inkscape:connector-curvature="0"
       id="path7660"
       style="fill:#de9284;fill-opacity:1;fill-rule:nonzero;stroke:none"
       d="m 1497.18,944.242 c 0,0 -18.4,17.598 -41.19,-14.582 -17.43,-24.566 -25.74,-71.238 -23.3,-79.59 2.41,-8.355 22.54,-19.168 60.62,35.461 16.83,24.129 22.32,56.864 3.87,58.711" /><path
       inkscape:connector-curvature="0"
       id="path7662"
       style="fill:#777475;fill-opacity:1;fill-rule:nonzero;stroke:none"
       d="m 1129.17,194.07 c 5.52,-2.539 239.75,-15.8 248.33,-12.5 10.83,4.168 6.67,17.5 16.67,26.668 6.04,5.551 21.83,9.641 25,19.16 6.66,20 45.91,239.575 45.07,252.075 -0.82,12.5 -7.5,12.5 -7.5,12.5 L 1400,231.57 c 0,0 -20.83,-8.332 -23.33,-13.332 -2.5,-5 -7.5,-15 -7.5,-15 l -255,2.5 c 0,0 -17.33,-8.59 -19.17,-13.168 -1.84,-4.582 -4.59,-11.461 -4.59,-11.461 0,0 10.1,-2.281 11.92,1.379 1.83,3.66 10.6,19.043 26.84,11.582" /><path
       inkscape:connector-curvature="0"
       id="path7664"
       style="fill:#777475;fill-opacity:1;fill-rule:nonzero;stroke:none"
       d="m 1344.16,652.91 c 0,0 38.95,-13.801 44.16,-18.457 0,0 150.58,-31.808 167.45,-49.308 12.87,-10.84 12.73,-10.692 21.72,-19.942 -1.19,0.949 -37.5,17.5 -71.85,26.465 -35.66,9.309 -88.35,14.992 -88.35,14.992 l -67.5,31.25 -5.63,15" /><path
       inkscape:connector-curvature="0"
       id="path7666"
       style="fill:#777475;fill-opacity:1;fill-rule:nonzero;stroke:none"
       d="m 925.422,253.59 c 4.551,14.492 86.538,234.535 91.138,241.683 23.33,36.25 75.1,62.422 75.1,62.422 l 88.13,46.465 22.5,26.875 -2.5,9.375 -71.25,-47.5 c 0,0 -101.98,-50.344 -119.48,-72.844 -17.497,-22.5 -102.197,-278.277 -102.197,-278.277 0,0 -19.519,0.723 -22.293,-17.969 0,0 3.809,-6.929 7.266,-0.699 1.816,3.277 6.934,8.66 15.234,9.008 8.301,0.351 12.461,4.152 13.848,9.34 1.387,5.203 4.504,12.121 4.504,12.121" /><path
       inkscape:connector-curvature="0"
       id="path7668"
       style="fill:#c79485;fill-opacity:1;fill-rule:nonzero;stroke:none"
       d="m 1063.9,1169.36 c 0,0 32.93,73.99 46.1,89.26 19.22,22.31 48.11,41.45 72.63,50.81 0,0 -28.98,-27.45 -52.29,-59.29 -22.9,-31.28 -37.67,-56.78 -40.58,-61.8 -7.84,-13.56 -25.86,-18.98 -25.86,-18.98" /><path
       inkscape:connector-curvature="0"
       id="path7670"
       style="fill:#de9284;fill-opacity:1;fill-rule:nonzero;stroke:none"
       d="m 1073.44,153.531 c 0,0 19.28,-37.09 15.57,-56.7419 l -42.28,4.8129 c 0,0 22.25,11.878 13.72,53.789 l 13.71,-0.481" /><path
       inkscape:connector-curvature="0"
       id="path7672"
       style="fill:#c2d0d6;fill-opacity:1;fill-rule:nonzero;stroke:none"
       d="m 1032.08,162.41 c 0,0 -2.49,8.34 2.09,13.75 4.58,5.41 5.41,8.34 10.41,5 5,-3.34 24.17,-24.59 24.17,-24.59 l -36.67,5.84" /><path
       inkscape:connector-curvature="0"
       id="path7674"
       style="fill:#c2d0d6;fill-opacity:1;fill-rule:nonzero;stroke:none"
       d="m 1055,98.6602 35.82,-3.5391 0.01,16.8669 c 0,0 48.34,4.16 54.17,12.082 0,0 10.01,-32.07 1.67,-49.1598 0,0 -60.83,-2.5118 -65,-2.0899 -4.17,0.418 -10.84,5.418 -10.84,5.418 L 1055,98.6602" /><path
       inkscape:connector-curvature="0"
       id="path7676"
       style="fill:#de9284;fill-opacity:1;fill-rule:nonzero;stroke:none"
       d="m 777.91,111.371 63.75,51.25 -10.625,-18.133 -50.625,-41.867 -2.5,8.75" /><path
       inkscape:connector-curvature="0"
       id="path7678"
       style="fill:#3d3a3b;fill-opacity:1;fill-rule:nonzero;stroke:none"
       d="m 1487.44,13.5898 -294.94,-1.1914 0,31.6719 238.33,-9.1719 56.61,10.3633 0,-31.6719" /><path
       inkscape:connector-curvature="0"
       id="path7680"
       style="fill:#3d3a3b;fill-opacity:1;fill-rule:nonzero;stroke:none"
       d="m 1297.5,199.898 c 0,0 72.89,7.411 122.12,105.25 l -20.45,-78.578 c 0,0 -12.5,-3.351 -17.5,-5.84 -5,-2.492 -9.17,-19.16 -9.17,-19.16 l -75,-1.672" /><path
       inkscape:connector-curvature="0"
       id="path7682"
       style="fill:none;stroke:#231f20;stroke-width:11;stroke-linecap:round;stroke-linejoin:round;stroke-miterlimit:10;stroke-dasharray:none;stroke-opacity:1"
       d="m 1113.64,1262.43 c -24.7,-26.7 -51.89,-93.84 -51.89,-93.83 100.22,-0.71 247.03,95.56 247.03,95.56 0,0 29.67,-206.18 85.38,-256.59 0,0 17.61,57.66 13.27,106.91" /><path
       inkscape:connector-curvature="0"
       id="path7684"
       style="fill:none;stroke:#231f20;stroke-width:11;stroke-linecap:round;stroke-linejoin:round;stroke-miterlimit:10;stroke-dasharray:none;stroke-opacity:1"
       d="m 1403.37,1038.34 c 0,0 12.18,-90.067 6.2,-132.582 0,0 41.25,43.426 49.91,95.342" /><path
       inkscape:connector-curvature="0"
       id="path7686"
       style="fill:none;stroke:#231f20;stroke-width:11;stroke-linecap:round;stroke-linejoin:round;stroke-miterlimit:10;stroke-dasharray:none;stroke-opacity:1"
       d="m 1456.89,983.773 c 0,0 11.86,12.891 35.29,9.688 23.44,-3.215 59.27,-49.883 24.66,-123.859 -32.86,-70.211 -96.92,-89.793 -105.8,-73.086 0,0 -4.16,-17.024 -24.16,-42.649 -23.38,-29.961 -138.19,-112.793 -221.3,-108.066 -85.01,4.844 -152.44,103.469 -173.314,152.504 -22,51.66 -7.254,125.3 -7.254,125.3 -20.891,132.575 -4.387,202.805 -4.387,202.805 20.925,86.79 131.785,136.13 131.785,136.13" /><path
       inkscape:connector-curvature="0"
       id="path7688"
       style="fill:none;stroke:#231f20;stroke-width:11;stroke-linecap:round;stroke-linejoin:round;stroke-miterlimit:10;stroke-dasharray:none;stroke-opacity:1"
       d="m 1498.23,945.172 c 0,0 -51.84,30.418 -65.32,-94.621" /><path
       inkscape:connector-curvature="0"
       id="path7690"
       style="fill:none;stroke:#231f20;stroke-width:11;stroke-linecap:round;stroke-linejoin:round;stroke-miterlimit:10;stroke-dasharray:none;stroke-opacity:1"
       d="m 1533.36,929.535 c 32.53,44.285 62.72,133.325 58.47,232.305 -4.27,98.96 -65.37,123.82 -65.37,123.82 -31.35,100.79 -219.61,118.57 -248.36,121.43 -77.68,7.72 -161.89,-14.13 -235.42,-58.45 C 979.961,1310.88 892.969,1294 892.969,1294 c 2.785,-42.5 75.898,-55.57 75.898,-55.57 0,0 -89.199,-95.98 7.332,-249.188" /><path
       inkscape:connector-curvature="0"
       id="path7692"
       style="fill:none;stroke:#231f20;stroke-width:11;stroke-linecap:round;stroke-linejoin:round;stroke-miterlimit:10;stroke-dasharray:none;stroke-opacity:1"
       d="m 1200.41,644.16 2.91,-36.387 c 0,0 1.25,-14.375 12.5,-16.445 9.16,-1.699 104.17,34.785 109.17,63.953 l -3.33,43.879" /><path
       inkscape:connector-curvature="0"
       id="path7694"
       style="fill:none;stroke:#231f20;stroke-width:11;stroke-linecap:round;stroke-linejoin:round;stroke-miterlimit:10;stroke-dasharray:none;stroke-opacity:1"
       d="m 1199.99,638.613 c 0,0 -103.34,-65 -128.34,-99.16 l 25.84,-38.34 -44.17,-48.34 c 0,0 24.17,-174.125 57.5,-246.625" /><path
       inkscape:connector-curvature="0"
       id="path7696"
       style="fill:none;stroke:#231f20;stroke-width:11;stroke-linecap:round;stroke-linejoin:round;stroke-miterlimit:10;stroke-dasharray:none;stroke-opacity:1"
       d="m 1200.82,627.773 c 0,0 -60.82,-54.16 -59.16,-135 0,0 62.91,86.68 72.29,86.055 9.37,-0.625 49.37,-69.375 49.37,-69.375 0,0 86.04,87.715 88.13,121.875 0.82,13.34 -8.33,24.285 -26.66,35.957" /><path
       inkscape:connector-curvature="0"
       id="path7698"
       style="fill:none;stroke:#231f20;stroke-width:11;stroke-linecap:round;stroke-linejoin:round;stroke-miterlimit:10;stroke-dasharray:none;stroke-opacity:1"
       d="m 1340.82,656.113 c 0,0 59.84,-17.246 91.51,-70.578 l -55.01,-18.73 c 0,0 17.4,-62.442 19.9,-80.762 0,0 -220.57,-232.395 -245.57,-282.395" /><path
       inkscape:connector-curvature="0"
       id="path7700"
       style="fill:none;stroke:#231f20;stroke-width:11;stroke-linecap:round;stroke-linejoin:round;stroke-miterlimit:10;stroke-dasharray:none;stroke-opacity:1"
       d="m 1142.49,515.273 c 0,0 -35.42,-101.625 -12.92,-309.953" /><path
       inkscape:connector-curvature="0"
       id="path7702"
       style="fill:none;stroke:#231f20;stroke-width:11;stroke-linecap:round;stroke-linejoin:round;stroke-miterlimit:10;stroke-dasharray:none;stroke-opacity:1"
       d="m 1325.82,581.113 c 0,0 -165,-225.375 -187.5,-376.215" /><path
       inkscape:connector-curvature="0"
       id="path7704"
       style="fill:none;stroke:#231f20;stroke-width:11;stroke-linecap:round;stroke-linejoin:round;stroke-miterlimit:10;stroke-dasharray:none;stroke-opacity:1"
       d="m 1181.45,543.203 3.54,-39.59 c 0,0 -46.66,-114.953 -62.49,-201.625" /><path
       inkscape:connector-curvature="0"
       id="path7706"
       style="fill:none;stroke:#231f20;stroke-width:11;stroke-linecap:round;stroke-linejoin:round;stroke-miterlimit:10;stroke-dasharray:none;stroke-opacity:1"
       d="m 1242.07,540.078 -40.41,-39.805 c 0,0 -5.2,-97.562 -11.03,-141.722" /><path
       inkscape:connector-curvature="0"
       id="path7708"
       style="fill:none;stroke:#231f20;stroke-width:11;stroke-linecap:round;stroke-linejoin:round;stroke-miterlimit:10;stroke-dasharray:none;stroke-opacity:1"
       d="m 1388.32,634.453 c 0,0 141.9,-29.961 169.99,-49.953 32.81,-23.359 54.2,-41.355 47.04,-162.605 -5.18,-87.793 -63.75,-282.465 -85,-322.4653 -21.25,-40 -47.03,-64.9414 -102.03,-63.6914 -55,1.25 -269.33,10.7109 -269.33,10.7109 l -16.92,28.0391" /><path
       inkscape:connector-curvature="0"
       id="path7710"
       style="fill:none;stroke:#231f20;stroke-width:11;stroke-linecap:round;stroke-linejoin:round;stroke-miterlimit:10;stroke-dasharray:none;stroke-opacity:1"
       d="m 1088.32,183.238 c 0,0 10,27.5 35,22.5 25,-5 225,-8.75 247.5,-5 0,0 0,27.5 27.5,26.25 0,0 51.74,220.903 54.24,265.903" /><path
       inkscape:connector-curvature="0"
       id="path7712"
       style="fill:none;stroke:#231f20;stroke-width:11;stroke-linecap:round;stroke-linejoin:round;stroke-miterlimit:10;stroke-dasharray:none;stroke-opacity:1"
       d="m 1019.99,435.195 c 0,0 7.71,-190.074 18.96,-250.074" /><path
       inkscape:connector-curvature="0"
       id="path7714"
       style="fill:none;stroke:#231f20;stroke-width:11;stroke-linecap:round;stroke-linejoin:round;stroke-miterlimit:10;stroke-dasharray:none;stroke-opacity:1"
       d="m 1030.41,160.32 c 0,0 -2.71,21.668 11.04,23.551 13.75,1.867 71.87,-8.133 71.87,-8.133 0,0 50,-54.367 33.75,-99.9997 0,0 -58.12,-3.75 -68.75,-0.6172 -5.4,1.5898 -22.5,21.25 -22.5,21.25" /><path
       inkscape:connector-curvature="0"
       id="path7716"
       style="fill:none;stroke:#231f20;stroke-width:11;stroke-linecap:round;stroke-linejoin:round;stroke-miterlimit:10;stroke-dasharray:none;stroke-opacity:1"
       d="m 1040.41,181.988 c 0,0 18.97,-2.418 32.5,-23.75 13.54,-21.328 21.66,-61.5583 14.79,-83.7497" /><path
       inkscape:connector-curvature="0"
       id="path7718"
       style="fill:none;stroke:#231f20;stroke-width:11;stroke-linecap:round;stroke-linejoin:round;stroke-miterlimit:10;stroke-dasharray:none;stroke-opacity:1"
       d="m 1074.16,154.91 c 0,0 -46.46,3.961 -62.09,8.328 -15.625,4.383 -149.375,45 -168.75,45 -8.125,0 -77.5,-4.578 -81.66,-20.41 -2.715,-10.269 -20.422,-81.25 -20.422,-81.25 -1.25,-5.418 5.41,-10.8397 10.832,-8.3397" /><path
       inkscape:connector-curvature="0"
       id="path7720"
       style="fill:none;stroke:#231f20;stroke-width:11;stroke-linecap:round;stroke-linejoin:round;stroke-miterlimit:10;stroke-dasharray:none;stroke-opacity:1"
       d="m 912.961,159.738 c 0,0 -65.844,14.172 -68.344,5.422 -2.5,-8.75 -44.422,-63.789 -56.922,-75.0389 -12.5,-11.25 2.5,-20.6328 19.375,-11.8828 16.875,8.75 53.75,44.9997 53.75,44.9997 0,0 111.551,-51.3864 137.981,-49.2185 38.119,3.1289 47.019,26.1015 47.019,26.1015 l 42.93,-4.3827" /><path
       inkscape:connector-curvature="0"
       id="path7722"
       style="fill:none;stroke:#231f20;stroke-width:11;stroke-linecap:round;stroke-linejoin:round;stroke-miterlimit:10;stroke-dasharray:none;stroke-opacity:1"
       d="m 885.281,182.59 c 0,0 -71.676,11.762 -80.008,-2.41 -5.105,-8.68 -45.703,-63.18 -53.203,-69.852 -7.5,-6.668 0.828,-19.1561 16.25,-13.7499 15.418,5.4099 58.75,44.1599 58.75,44.1599" /><path
       inkscape:connector-curvature="0"
       id="path7724"
       style="fill:none;stroke:#231f20;stroke-width:11;stroke-linecap:round;stroke-linejoin:round;stroke-miterlimit:10;stroke-dasharray:none;stroke-opacity:1"
       d="m 1123.33,587.695 c 0,0 -110.45,-40.793 -127.947,-95.793 -17.5,-55 -87.754,-249.691 -87.754,-249.691 0,0 -20.09,2.008 -24.106,-17.801 L 712.82,235.449" /><path
       inkscape:connector-curvature="0"
       id="path7726"
       style="fill:none;stroke:#231f20;stroke-width:11;stroke-linecap:round;stroke-linejoin:round;stroke-miterlimit:10;stroke-dasharray:none;stroke-opacity:1"
       d="m 1487.44,49.4297 0.31,-36.4414" /><path
       inkscape:connector-curvature="0"
       id="path7728"
       style="fill:none;stroke:#231f20;stroke-width:11;stroke-linecap:round;stroke-linejoin:round;stroke-miterlimit:10;stroke-dasharray:none;stroke-opacity:1"
       d="m 1099.66,983.883 c 0,0 8.48,-31.391 3.37,-57.367" /><path
       inkscape:connector-curvature="0"
       id="path7730"
       style="fill:none;stroke:#231f20;stroke-width:11;stroke-linecap:round;stroke-linejoin:round;stroke-miterlimit:10;stroke-dasharray:none;stroke-opacity:1"
       d="m 1113.3,936.254 c 0,0 -31.76,-32.805 -34.1,-47.539 -2.34,-14.719 16.29,-45.363 16.29,-45.363" /><path
       inkscape:connector-curvature="0"
       id="path7732"
       style="fill:none;stroke:#231f20;stroke-width:11;stroke-linecap:round;stroke-linejoin:round;stroke-miterlimit:10;stroke-dasharray:none;stroke-opacity:1"
       d="m 1176.17,1052.69 c 0,0 12.09,41.7 52.71,38.97 40.65,-2.71 56.39,-31.34 59.36,-66.6 1.11,-13.21 -0.13,-21.45 -0.13,-21.45" /><path
       inkscape:connector-curvature="0"
       id="path7734"
       style="fill:none;stroke:#231f20;stroke-width:11;stroke-linecap:round;stroke-linejoin:round;stroke-miterlimit:10;stroke-dasharray:none;stroke-opacity:1"
       d="m 1072.78,1025.1 c 0,0 -17.93,38.74 -41.95,29.25 -24.03,-9.48 -26.96,-45.49 -25.9,-61.436 0,0 0.52,-6.836 1.54,-14.59" /><path
       inkscape:connector-curvature="0"
       id="path7736"
       style="fill:none;stroke:#231f20;stroke-width:11;stroke-linecap:round;stroke-linejoin:round;stroke-miterlimit:10;stroke-dasharray:none;stroke-opacity:1"
       d="m 1103.09,790.902 -0.8,-21.015 c 0,0 93.47,-13.352 137.92,48.269" /><path
       inkscape:connector-curvature="0"
       id="path7738"
       style="fill:#231f20;fill-opacity:1;fill-rule:nonzero;stroke:none"
       d="m 1175.13,1112.82 c 17.99,18.39 46.99,36.07 73.31,28.48 17.16,-4.96 30.96,-23.17 38.37,-38.62 4.61,-9.64 20.37,2.49 16.23,11.14 -11.18,23.37 -31.1,43.12 -57.3,47.11 -28.99,4.42 -62.24,-18.1 -81.43,-37.72 -8.73,-8.93 2.11,-19.3 10.82,-10.39 l 0,0" /><path
       inkscape:connector-curvature="0"
       id="path7740"
       style="fill:#231f20;fill-opacity:1;fill-rule:nonzero;stroke:none"
       d="m 1066.94,1091.94 c -11.39,9.19 -28.41,21.85 -43.92,20.07 -18.08,-2.08 -27.407,-24.84 -30.676,-40.36 -1.934,-9.22 9.236,-10.58 11.156,-1.53 2.74,13.05 10.79,29.4 26.17,26.3 10.65,-2.14 21.53,-9.81 29.87,-16.54 6.81,-5.49 12.91,7.61 7.4,12.06 l 0,0" /><path
       inkscape:connector-curvature="0"
       id="path7742"
       style="fill:#231f20;fill-opacity:1;fill-rule:nonzero;stroke:none"
       d="m 1245.77,1001.09 c 3.39,-28.574 -6.27,-53.281 -21.55,-55.141 -15.33,-1.883 -30.5,19.77 -33.87,48.371 -3.41,28.57 6.27,53.26 21.55,55.13 15.31,1.87 30.48,-19.76 33.87,-48.36" /><path
       inkscape:connector-curvature="0"
       id="path7744"
       style="fill:#231f20;fill-opacity:1;fill-rule:nonzero;stroke:none"
       d="m 1069.28,971.969 c 3.64,-23.664 -2.89,-44.172 -14.62,-45.785 -11.68,-1.621 -24.14,16.261 -27.79,39.914 -3.66,23.652 2.9,44.152 14.59,45.752 11.71,1.62 24.15,-16.233 27.82,-39.881" /><path
       inkscape:connector-curvature="0"
       id="path7746"
       style="fill:#ffffff;fill-opacity:1;fill-rule:nonzero;stroke:none"
       d="m 1237.99,1029.66 c 1.48,-6.84 -0.75,-13.17 -4.98,-14.17 -4.21,-0.99 -8.84,3.75 -10.34,10.57 -1.49,6.83 0.74,13.16 4.98,14.16 4.22,1 8.85,-3.75 10.34,-10.56" /><path
       inkscape:connector-curvature="0"
       id="path7748"
       style="fill:#ffffff;fill-opacity:1;fill-rule:nonzero;stroke:none"
       d="m 1061.87,996.461 c 1.19,-5.988 -1.08,-11.469 -5.14,-12.231 -4.02,-0.781 -8.33,3.458 -9.55,9.438 -1.23,5.992 1.07,11.472 5.14,12.242 4.03,0.77 8.31,-3.46 9.55,-9.449" /><path
       inkscape:connector-curvature="0"
       id="path7750"
       style="fill:none;stroke:#231f20;stroke-width:10;stroke-linecap:round;stroke-linejoin:round;stroke-miterlimit:10;stroke-dasharray:none;stroke-opacity:1"
       d="m 5,10.25 1755.72,0" /><path
       inkscape:connector-curvature="0"
       id="path7752"
       style="fill:#69696c;fill-opacity:1;fill-rule:nonzero;stroke:none"
       d="m 1175.49,13.5 c 0,-4.67187 -3.83,-8.5 -8.51,-8.5 L 157.41,5 c -4.676,0 -8.504,3.82813 -8.504,8.5 l 0,34.7305 c 0,4.6797 3.828,8.5078 8.504,8.5078 l 1009.57,0 c 4.68,0 8.51,-3.8281 8.51,-8.5078 l 0,-34.7305" /><path
       inkscape:connector-curvature="0"
       id="path7754"
       style="fill:#797777;fill-opacity:1;fill-rule:nonzero;stroke:none"
       d="M 781.379,61 C 782.961,50.2109 775.332,41.3086 764.414,41.2305 L 162.266,36.6719 c -10.914,-0.0821 -21.844,8.5469 -24.293,19.1875 L 16.7344,583.027 c -2.4492,10.633 4.4531,20.067 15.3242,20.957 l 641.8794,52.539 c 10.875,0.887 21.074,-7.218 22.656,-18.007 L 781.379,61" /><path
       inkscape:connector-curvature="0"
       id="path7756"
       style="fill:#bbbaba;fill-opacity:1;fill-rule:nonzero;stroke:none"
       d="m 651.301,633.887 c 10.879,0.886 21.07,-7.219 22.652,-18.008 L 755.438,60.8008 c 1.582,-10.7891 8.722,-19.582 15.851,-19.5313 7.129,0.0586 11.672,8.9414 10.09,19.7305 l -84.785,577.516 c -1.582,10.789 -11.781,18.894 -22.656,18.007 L 32.0586,603.984 c -10.8711,-0.89 -18.7188,-6.211 -17.4297,-11.816 1.2891,-5.605 11.2461,-9.465 22.1172,-8.574 l 614.5549,50.293" /><path
       inkscape:connector-curvature="0"
       id="path7758"
       style="fill:none;stroke:#231f20;stroke-width:10;stroke-linecap:round;stroke-linejoin:round;stroke-miterlimit:10;stroke-dasharray:none;stroke-opacity:1"
       d="m 782.645,56.7383 384.595,0 c 4.54,0 8.25,-3.707 8.25,-8.25 l 0,-35.2383 c 0,-4.53906 -3.71,-8.25 -8.25,-8.25 L 157.156,5 c -4.539,0 -8.25,3.71094 -8.25,8.25 l 0,27.3203" /><path
       inkscape:connector-curvature="0"
       id="path7760"
       style="fill:none;stroke:#231f20;stroke-width:10;stroke-linecap:round;stroke-linejoin:round;stroke-miterlimit:10;stroke-dasharray:none;stroke-opacity:1"
       d="M 781.379,61 C 782.961,50.2109 775.332,41.3086 764.414,41.2305 L 162.266,36.6719 c -10.914,-0.0821 -21.844,8.5469 -24.293,19.1875 L 16.7344,583.027 c -2.4492,10.633 4.4531,20.067 15.3242,20.957 l 641.8794,52.539 c 10.875,0.887 21.074,-7.218 22.656,-18.007 L 781.379,61 Z" /><path
       inkscape:connector-curvature="0"
       id="path7762"
       style="fill:none;stroke:#231f20;stroke-width:7.5;stroke-linecap:round;stroke-linejoin:round;stroke-miterlimit:10;stroke-dasharray:none;stroke-opacity:1"
       d="m 794.59,53.75 0,-45.39062" /></g></svg>