<?xml version="1.0" ?><svg id="Icons" style="enable-background:new 0 0 32 32;" version="1.1" viewBox="0 0 32 32" xml:space="preserve" xmlns="http://www.w3.org/2000/svg" xmlns:xlink="http://www.w3.org/1999/xlink"><g><path d="M17.8,18H15c-0.6,0-1-0.4-1-1v-2.8c0-0.3,0.1-0.5,0.3-0.7L24.9,2.9c0.2-0.2,0.4-0.3,0.7-0.3l0,0c0.3,0,0.5,0.1,0.7,0.3   l2.8,2.8c0.4,0.4,0.4,1,0,1.4L18.5,17.7C18.3,17.9,18.1,18,17.8,18z"/></g><path d="M19.9,19.1c-0.6,0.6-1.3,0.9-2.1,0.9H15c-1.7,0-3-1.3-3-3v-2.8c0-0.8,0.3-1.6,0.9-2.1L18.9,6H9C7.3,6,6,7.3,6,9v14  c0,1.7,1.3,3,3,3h14c1.7,0,3-1.3,3-3v-9.9L19.9,19.1z"/></svg>