<?xml version="1.0" encoding="iso-8859-1"?>
<!-- Generator: Adobe Illustrator 19.1.0, SVG Export Plug-In . SVG Version: 6.00 Build 0)  -->
<svg version="1.1" id="Capa_1" xmlns="http://www.w3.org/2000/svg" xmlns:xlink="http://www.w3.org/1999/xlink" x="0px" y="0px"
	 viewBox="0 0 374.14 374.14" style="enable-background:new 0 0 374.14 374.14;" xml:space="preserve">
<g>
	<g id="Lamp_2_">
		<g>
			<path d="M302.056,143.035c-10.839,10.839-20.68,21.7-29.795,32.425c7.165,3.9,15.079,5.896,22.947,5.896
				c11.564,0,23.061-4.308,31.949-13.197c14.966-14.943,16.916-37.233,7.301-54.897
				C323.756,122.355,312.894,132.196,302.056,143.035z M238.338,351.465h-56.688L68.275,238.089h11.338v-45.35H68.275L184.53,82.107
				l6.961,7.075c-18.707,40.044-12.313,89.136,19.841,122.559c16.666-28.752,39.115-58.298,66.484-86.12
				s56.438-50.634,84.737-67.572c-20.702-20.544-47.482-30.747-74.306-30.747c-15.827,0-31.654,3.537-46.28,10.589l-14.92-15.17
				c-0.295-0.317-0.385-0.748-0.703-1.066L211.582,6.644C207.205,2.222,201.491,0,195.777,0c-5.714,0-11.428,2.222-15.805,6.644
				l-19.047,19.365c-8.73,8.866-8.73,23.242,0,32.108l7.8,7.936L34.262,192.739H11.587v45.35h22.675l124.713,113.376H90.95
				c-6.757,0-11.338,4.467-11.338,11.338c0,6.871,4.58,11.338,11.338,11.338h147.388c6.757,0,11.338-4.467,11.338-11.338
				C249.676,355.932,245.096,351.465,238.338,351.465z M195.755,22.72L195.755,22.72l12.766,12.948l0.113,0.227l1.723,1.973
				l0.431,0.499l0.454,0.454l14.92,15.147l11.156,11.338l14.24-6.871c11.383-5.487,24.081-8.39,36.688-8.39
				c12.018,0,23.65,2.54,34.33,7.392c-20.929,15.124-41.473,32.788-60.543,52.176c-19.047,19.342-36.416,40.203-51.268,61.45
				c-9.818-22.562-9.909-48.978,0.907-72.13l6.757-14.467l-11.156-11.338l-6.939-7.075L184.53,49.999l-7.8-7.936L195.755,22.72z"/>
		</g>
	</g>
</g>
<g>
</g>
<g>
</g>
<g>
</g>
<g>
</g>
<g>
</g>
<g>
</g>
<g>
</g>
<g>
</g>
<g>
</g>
<g>
</g>
<g>
</g>
<g>
</g>
<g>
</g>
<g>
</g>
<g>
</g>
</svg>
