<?xml version="1.0" encoding="UTF-8" standalone="no"?>
<svg
   xmlns:dc="http://purl.org/dc/elements/1.1/"
   xmlns:cc="http://creativecommons.org/ns#"
   xmlns:rdf="http://www.w3.org/1999/02/22-rdf-syntax-ns#"
   xmlns:svg="http://www.w3.org/2000/svg"
   xmlns="http://www.w3.org/2000/svg"
   xmlns:sodipodi="http://sodipodi.sourceforge.net/DTD/sodipodi-0.dtd"
   xmlns:inkscape="http://www.inkscape.org/namespaces/inkscape"
   id="svg1"
   sodipodi:docname="puzzle2.svg"
   viewBox="0 0 373.51 372.74"
   sodipodi:version="0.32"
   version="1.1"
   inkscape:version="1.0.1 (3bc2e813f5, 2020-09-07)">
  <defs
     id="defs3">
    <radialGradient
       id="radialGradient1096"
       gradientUnits="userSpaceOnUse"
       cy="132.02"
       cx="126.33"
       gradientTransform="matrix(1.0002 0 0 .99978 -29.891 -34.328)"
       r="242.33">
      <stop
         id="stop1086"
         style="stop-color:#7f0000"
         offset="0" />
      <stop
         id="stop1087"
         style="stop-color:#ff0000"
         offset="1" />
    </radialGradient>
  </defs>
  <sodipodi:namedview
     id="base"
     bordercolor="#666666"
     inkscape:pageshadow="2"
     inkscape:window-y="-8"
     pagecolor="#ffffff"
     inkscape:window-height="747"
     inkscape:window-maximized="1"
     inkscape:zoom="0.95878136"
     inkscape:window-x="-8"
     showgrid="true"
     borderopacity="1.0"
     inkscape:current-layer="svg1"
     inkscape:cx="284.35569"
     inkscape:cy="302.99905"
     inkscape:window-width="1280"
     inkscape:pageopacity="0.0"
     inkscape:document-rotation="0" />
  <path
     id="path1234"
     inkscape:connector-curvature="0"
     sodipodi:nodetypes="ccccccccccccccccccccccccccccccccccccccccccc"
     style="fill:#a28916"
     d="m214.05 6.2969c-15.2 0.56-32.25 5.653-41.35 16.563-13.23 28.187 18.91 15.172 22.69 34.687s-18.9 20.595-18.9 20.595h-97.761v99.15c-0.27 3.13-2.53 21.22-20.432 17.76-19.515-3.78-6.5-35.89-34.688-22.66-9.207 7.67-14.275 20.98-15.969 34.09-0.026 0.21-0.069 0.42-0.093 0.63-0.967 4.61-1.457 9.89-1.25 15.5 0.559 15.2 5.653 32.25 16.562 41.34 28.188 13.23 15.173-18.91 34.688-22.69 19.512-3.78 20.592 18.91 20.592 18.91l0.59 97.72 98.1-0.78s22.68-1.08 18.9-20.6c-3.77-19.51-35.88-6.5-22.65-34.68 9.09-10.91 26.11-16.01 41.31-16.57 5.61-0.2 10.89 0.29 15.5 1.25 0.21 0.03 0.42 0.07 0.63 0.1 13.11 1.69 26.45 6.76 34.12 15.97 13.23 28.18-18.91 15.17-22.69 34.68-3.78 19.52 18.91 20.6 18.91 20.6l97.19 0.03s-0.63-98.25-0.63-98.25-1.08-22.69-20.59-18.91c-19.52 3.78-6.5 35.92-34.69 22.69-10.91-9.1-16-26.14-16.56-41.34-0.21-5.61 0.28-10.89 1.25-15.5 0.02-0.21 0.07-0.42 0.09-0.63 1.7-13.11 6.76-26.42 15.97-34.09 5.29-2.48 9.13-3.38 12-3.16 12.46 0.97 6.83 22.74 22.69 25.81 18.21 3.53 20.26-15.34 20.47-17.96v-98.408h-102.16c-6.4-1.48-16.96-5.99-14.28-19.845 3.78-19.515 35.89-6.5 22.66-34.687-7.68-9.207-20.98-14.275-34.1-15.969-0.2-0.027-0.42-0.069-0.62-0.094-4.61-0.967-9.89-1.457-15.5-1.25z" />
  <metadata
     id="metadata10">
    <rdf:RDF>
      <cc:Work>
        <dc:format>image/svg+xml</dc:format>
        <dc:type
           rdf:resource="http://purl.org/dc/dcmitype/StillImage" />
        <cc:license
           rdf:resource="http://creativecommons.org/licenses/publicdomain/" />
        <dc:publisher>
          <cc:Agent
             rdf:about="http://openclipart.org/">
            <dc:title>Openclipart</dc:title>
          </cc:Agent>
        </dc:publisher>
      </cc:Work>
      <cc:License
         rdf:about="http://creativecommons.org/licenses/publicdomain/">
        <cc:permits
           rdf:resource="http://creativecommons.org/ns#Reproduction" />
        <cc:permits
           rdf:resource="http://creativecommons.org/ns#Distribution" />
        <cc:permits
           rdf:resource="http://creativecommons.org/ns#DerivativeWorks" />
      </cc:License>
    </rdf:RDF>
  </metadata>
  <metadata
     id="metadata12">
    <rdf:RDF>
      <cc:Work
         rdf:about="">
        <dc:title>Clipart by Nicu Buculei - jigsaw_red_10</dc:title>
        <dc:rights>
          <cc:Agent>
            <dc:title>Nicu Buculei</dc:title>
          </cc:Agent>
        </dc:rights>
        <dc:type
           rdf:resource="http://purl.org/dc/dcmitype/StillImage" />
        <cc:license
           rdf:resource="http://web.resource.org/cc/PublicDomain" />
      </cc:Work>
      <cc:License
         rdf:about="http://web.resource.org/cc/PublicDomain">
        <cc:permits
           rdf:resource="http://web.resource.org/cc/Reproduction" />
        <cc:permits
           rdf:resource="http://web.resource.org/cc/Distribution" />
        <cc:permits
           rdf:resource="http://web.resource.org/cc/DerivativeWorks" />
      </cc:License>
    </rdf:RDF>
  </metadata>
  <text
     xml:space="preserve"
     style="font-style:normal;font-variant:normal;font-weight:normal;font-stretch:normal;font-size:144px;line-height:1.25;font-family:Gabriola;-inkscape-font-specification:Gabriola;letter-spacing:0.08px;fill:#ffffff"
     x="167.92149"
     y="231.54393"
     id="text836"><tspan
       sodipodi:role="line"
       id="tspan834"
       x="167.92149"
       y="231.54393"> </tspan></text>
  <text
     xml:space="preserve"
     style="font-size:144px;line-height:1.25;font-family:Literata;-inkscape-font-specification:'Literata, Normal';letter-spacing:0.08px"
     x="182.52336"
     y="239.88785"
     id="text840"><tspan
       sodipodi:role="line"
       id="tspan838"
       x="182.52336"
       y="239.88785" /></text>
  <text
     xml:space="preserve"
     style="font-size:144px;line-height:1.25;font-family:Literata;-inkscape-font-specification:'Literata, Normal';letter-spacing:0.08px;fill:#ffffff;"
     x="171.05048"
     y="244.05981"
     id="text844"><tspan
       sodipodi:role="line"
       id="tspan842"
       x="171.05048"
       y="244.05981">F</tspan></text>
</svg>
